<svg width="40" height="40" viewBox="0 0 40 40" fill="none" xmlns="http://www.w3.org/2000/svg">
<rect x="0.25" y="0.25" width="39.5" height="39.5" rx="7.75" fill="white" style="fill:white;fill-opacity:1;"/>
<rect x="0.25" y="0.25" width="39.5" height="39.5" rx="7.75" stroke="#EDEDED" style="stroke:#EDEDED;stroke:color(display-p3 0.9294 0.9294 0.9294);stroke-opacity:1;" stroke-width="0.5"/>
<g clip-path="url(#clip0_12891_99060)">
<path fill-rule="evenodd" clip-rule="evenodd" d="M29.3938 28.8648C29.3938 28.8648 29.3306 28.8519 29.299 28.8454C29.2674 28.8454 29.2358 28.8325 29.2042 28.8325C28.2815 28.6583 27.403 28.2067 26.6888 27.4777C26.6382 27.426 26.5877 27.3744 26.5371 27.3164C26.3917 27.168 26.1579 27.168 26.0125 27.3164C25.8735 27.4519 25.8672 27.6712 25.9872 27.826C25.9936 27.8389 26.0062 27.8454 26.0125 27.8583C26.0315 27.8777 26.0441 27.8906 26.0631 27.9035C26.101 27.9357 26.1326 27.9744 26.1705 28.0067C26.8657 28.7164 27.3018 29.5938 27.4851 30.5099C27.4851 30.5615 27.4915 30.6131 27.5041 30.6648C27.5104 30.7228 27.5231 30.7744 27.542 30.8325C27.6115 31.0906 27.7443 31.3357 27.9402 31.5357C28.5469 32.1551 29.5329 32.1551 30.1396 31.5357C30.7464 30.9164 30.7464 29.9099 30.1396 29.2906C29.9247 29.0712 29.6656 28.9293 29.3875 28.8648" fill="#FB6500" style="fill:#FB6500;fill:color(display-p3 0.9843 0.3961 0.0000);fill-opacity:1;"/>
<path fill-rule="evenodd" clip-rule="evenodd" d="M34.5386 24.8063C33.9319 24.187 32.9459 24.187 32.3392 24.8063C32.1243 25.0257 31.9852 25.2902 31.922 25.5741C31.9157 25.6063 31.9094 25.6386 31.9031 25.6708C31.9031 25.7031 31.8967 25.7353 31.8904 25.7676C31.7198 26.7095 31.2774 27.6063 30.5632 28.3353C30.5126 28.387 30.462 28.4386 30.4052 28.4902C30.2598 28.6386 30.2598 28.8773 30.4052 29.0257C30.5379 29.1676 30.7528 29.1741 30.9045 29.0515C30.9171 29.045 30.9234 29.0321 30.9361 29.0257C30.955 29.0063 30.9677 28.9934 30.9803 28.9741C31.0119 28.9353 31.0498 28.9031 31.0814 28.8644C31.7767 28.1547 32.6362 27.7095 33.5337 27.5224C33.5842 27.5224 33.6348 27.516 33.6854 27.5031C33.7422 27.4966 33.7928 27.4837 33.8497 27.4644C34.1025 27.3934 34.3427 27.2579 34.5386 27.0579C35.1453 26.4386 35.1453 25.4321 34.5386 24.8128" fill="#0078FF" style="fill:#0078FF;fill:color(display-p3 0.0000 0.4706 1.0000);fill-opacity:1;"/>
<path fill-rule="evenodd" clip-rule="evenodd" d="M27.9529 20.3161C27.3461 20.9354 27.3461 21.9419 27.9529 22.5612C28.1677 22.7806 28.4269 22.9225 28.705 22.987C28.7366 22.9935 28.7682 22.9999 28.7998 23.0064C28.8314 23.0064 28.863 23.0129 28.8946 23.0193C29.8173 23.1935 30.6958 23.6451 31.41 24.3741C31.4606 24.4258 31.5111 24.4774 31.5617 24.5354C31.7071 24.6838 31.9409 24.6838 32.0863 24.5354C32.219 24.3935 32.2317 24.1741 32.1116 24.0258C32.1052 24.0129 32.0926 24.0064 32.0863 23.9935C32.0673 23.9741 32.0547 23.9612 32.0357 23.9483C31.9978 23.9161 31.9662 23.8774 31.9283 23.8451C31.2331 23.1354 30.797 22.258 30.6137 21.3419C30.6137 21.2903 30.6074 21.2387 30.5947 21.187C30.5884 21.129 30.5758 21.0774 30.5568 21.0193C30.4873 20.7612 30.3545 20.5161 30.1586 20.3161C29.5519 19.6967 28.5659 19.6967 27.9592 20.3161" fill="#2DBC00" style="fill:#2DBC00;fill:color(display-p3 0.1765 0.7373 0.0000);fill-opacity:1;"/>
<path fill-rule="evenodd" clip-rule="evenodd" d="M26.1897 26.1802C26.1897 26.1802 26.2024 26.1157 26.2024 26.0834C26.373 25.1415 26.8154 24.2447 27.5296 23.5157C27.5802 23.4641 27.6307 23.4125 27.6876 23.3608C27.833 23.2125 27.833 22.9737 27.6876 22.8254C27.5486 22.6834 27.34 22.677 27.1883 22.7995C27.1757 22.806 27.1693 22.8189 27.1567 22.8254C27.1377 22.8447 27.1251 22.8576 27.1125 22.877C27.0809 22.9157 27.0429 22.9479 27.0113 22.9866C26.3161 23.6963 25.4566 24.1415 24.5591 24.3286C24.5085 24.3286 24.458 24.335 24.4074 24.3479C24.3505 24.3544 24.3 24.3673 24.2431 24.3866C23.9903 24.4576 23.7501 24.5931 23.5542 24.7931C22.9474 25.4125 22.9474 26.4189 23.5542 27.0383C24.1609 27.6576 25.1469 27.6576 25.7536 27.0383C25.9685 26.8189 26.1075 26.5544 26.1707 26.2705C26.1771 26.2383 26.1834 26.206 26.1897 26.1737" fill="#FFCC00" style="fill:#FFCC00;fill:color(display-p3 1.0000 0.8000 0.0000);fill-opacity:1;"/>
<path fill-rule="evenodd" clip-rule="evenodd" d="M29.5014 15.0452C29.0716 14.1355 28.4901 13.2968 27.776 12.5419C25.9684 10.6387 23.4403 9.4129 20.6594 9.09032C20.1601 9.03226 19.6671 9 19.1868 9C18.7064 9 18.2577 9.02581 17.7774 9.07742C14.9838 9.3871 12.4431 10.6065 10.6229 12.5161C9.90868 13.271 9.3209 14.1097 8.8848 15.0129C8.2907 16.2387 7.99365 17.5484 7.99365 18.8903C7.99365 20.6194 8.51191 22.3226 9.48523 23.8194C9.9782 24.5806 10.7872 25.5355 11.533 26.2065L11.198 28.9032C11.1854 28.9419 11.1727 28.9742 11.1601 29.0129C11.1538 29.0452 11.1474 29.0839 11.1474 29.1226C11.1474 29.1484 11.1411 29.1742 11.1411 29.2065C11.1411 29.2387 11.1411 29.2645 11.1474 29.2968C11.1917 29.7419 11.5519 30.0903 12.0007 30.0903C12.1587 30.0903 12.2977 30.0452 12.4241 29.9742C12.4241 29.9742 12.4304 29.9742 12.4368 29.9677C12.4557 29.9548 12.4747 29.9484 12.4937 29.9355L13.2963 29.5226L15.6854 28.2968C16.3743 28.4968 17.0569 28.6258 17.771 28.7097C18.2387 28.7613 18.7128 28.7871 19.1805 28.7871C19.6481 28.7871 20.1538 28.7548 20.6531 28.6968C21.6327 28.5806 22.5744 28.3548 23.4719 28.0258C23.3771 27.9935 23.2823 27.9484 23.1875 27.8968C22.6376 27.5742 22.3532 26.9677 22.4101 26.3677C21.7717 26.5742 21.1018 26.7226 20.4129 26.8065C19.9958 26.8581 19.5786 26.8774 19.1805 26.8774C18.7823 26.8774 18.3904 26.8581 17.9986 26.8129C17.9164 26.8065 17.8342 26.7935 17.7521 26.7806C17.2149 26.7097 16.684 26.5935 16.172 26.4452C16.0646 26.4129 15.9571 26.3935 15.8434 26.3935C15.6664 26.3935 15.4958 26.4387 15.3188 26.5355C15.2935 26.5484 15.2746 26.5548 15.2493 26.5677L13.2837 27.7484L13.2015 27.8C13.1573 27.8258 13.132 27.8387 13.113 27.8387C13.0435 27.8387 12.9803 27.7742 12.9803 27.7032L13.0562 27.3935C13.0751 27.3097 13.1067 27.1935 13.1446 27.0516C13.1889 26.8839 13.2394 26.6903 13.29 26.4968C13.3469 26.2774 13.4038 26.0581 13.448 25.8774C13.467 25.8065 13.4859 25.7161 13.4859 25.6194C13.4859 25.3484 13.3595 25.0968 13.151 24.9419C13.0435 24.8581 12.9361 24.7742 12.8223 24.6839C12.6517 24.5419 12.4873 24.3935 12.3293 24.2387C11.8869 23.8065 11.4951 23.3355 11.1664 22.8323C10.3953 21.6452 9.98452 20.3032 9.98452 18.9419C9.98452 17.8839 10.2184 16.8581 10.6861 15.8903C11.0337 15.1677 11.5014 14.4903 12.0828 13.8903C13.5744 12.3226 15.679 11.3161 17.9986 11.0645C18.4031 11.0194 18.8012 11 19.1805 11C19.5786 11 19.9958 11.0258 20.4129 11.071C22.7198 11.3419 24.8118 12.3484 26.2907 13.9161C26.8658 14.5226 27.3335 15.2 27.6748 15.9226C28.1362 16.8839 28.3637 17.9032 28.3637 18.9484C28.3637 19.0581 28.3574 19.1677 28.3511 19.271C28.9515 18.8968 29.7415 18.9677 30.2598 19.4968C30.2851 19.5226 30.3104 19.5548 30.3293 19.5806C30.3483 19.3548 30.3546 19.1355 30.3546 18.9097C30.3546 17.5806 30.0576 16.2839 29.4761 15.0645" fill="#0078FF" style="fill:#0078FF;fill:color(display-p3 0.0000 0.4706 1.0000);fill-opacity:1;"/>
</g>
<defs>
<clipPath id="clip0_12891_99060">
<rect width="27" height="23" fill="white" style="fill:white;fill-opacity:1;" transform="translate(8 9)"/>
</clipPath>
</defs>
</svg>
